<?xml version="1.0" standalone="no"?>
<!DOCTYPE svg PUBLIC "-//W3C//DTD SVG 20010904//EN"
 "http://www.w3.org/TR/2001/REC-SVG-20010904/DTD/svg10.dtd">
<svg version="1.0" xmlns="http://www.w3.org/2000/svg"
 width="208.000000pt" height="213.000000pt" viewBox="0 0 208.000000 213.000000"
 preserveAspectRatio="xMidYMid meet">

<g transform="translate(0.000000,213.000000) scale(0.100000,-0.100000)"
fill="#000000" stroke="none">
<path d="M720 2048 c-52 -15 -86 -43 -109 -91 -21 -42 -21 -56 -21 -608 0
-634 -2 -616 76 -675 l37 -29 244 -3 243 -3 0 110 0 111 -174 0 c-145 0 -177
3 -190 16 -14 14 -16 70 -16 465 0 291 4 457 10 470 10 18 26 19 468 19 343 0
461 -3 470 -12 17 -17 17 -929 0 -946 -7 -7 -43 -12 -90 -12 l-78 0 0 -111 0
-110 148 3 c144 3 150 4 184 30 75 57 73 37 76 656 2 364 -1 566 -8 592 -14
51 -54 98 -105 121 -37 17 -77 19 -585 18 -329 -1 -559 -5 -580 -11z"/>
<path d="M217 1546 c-50 -18 -85 -51 -108 -101 -17 -37 -19 -76 -19 -585 0
-368 4 -558 11 -585 16 -55 44 -92 89 -115 38 -19 61 -20 604 -20 376 0 574 4
593 11 40 15 73 48 94 94 17 38 19 79 19 678 l0 637 -300 0 -301 0 3 -112 3
-113 175 -3 c150 -2 177 -5 188 -19 9 -13 12 -123 12 -468 0 -425 -1 -453 -18
-468 -17 -15 -64 -17 -470 -17 l-452 0 -16 25 c-15 23 -16 69 -10 477 3 248 9
455 13 459 5 5 46 9 93 11 l85 3 0 110 0 110 -125 2 c-86 2 -137 -2 -163 -11z"/>
</g>
</svg>
